<svg width="402.451" height="461.453" viewBox="0 0 106.482 122.093" xmlns:xlink="http://www.w3.org/1999/xlink" xmlns="http://www.w3.org/2000/svg"><defs><linearGradient id="b"><stop style="stop-color:#a00000;stop-opacity:1" offset="0"/><stop style="stop-color:#ff8585;stop-opacity:1" offset="1"/></linearGradient><linearGradient id="a"><stop style="stop-color:#8bff8b;stop-opacity:1" offset="0"/><stop style="stop-color:#080;stop-opacity:1" offset="1"/></linearGradient><linearGradient xlink:href="#a" id="d" x1="265.423" y1="146.656" x2="379.97" y2="146.656" gradientUnits="userSpaceOnUse"/><linearGradient xlink:href="#b" id="c" x1="265.423" y1="146.656" x2="379.97" y2="146.656" gradientUnits="userSpaceOnUse"/><linearGradient xlink:href="#b" id="e" x1="265.423" y1="146.656" x2="379.97" y2="146.656" gradientUnits="userSpaceOnUse"/><linearGradient xlink:href="#a" id="f" gradientUnits="userSpaceOnUse" x1="265.423" y1="146.656" x2="379.97" y2="146.656"/></defs><path style="fill:url(#c);fill-opacity:1;stroke:#000;stroke-width:3.77953;stroke-miterlimit:4;stroke-dasharray:none;stroke-opacity:1" transform="matrix(0 -.85967 .85967 0 -72.834 326.647)" d="M267.313 146.656c0-11.898 92.735-65.439 103.04-59.49 10.303 5.95 10.303 113.03 0 118.98-10.305 5.949-103.04-47.592-103.04-59.49z"/><path style="fill:url(#d);fill-opacity:1;stroke:#000;stroke-width:3.77953;stroke-miterlimit:4;stroke-dasharray:none;stroke-opacity:1" transform="matrix(0 .85967 -.85967 0 179.316 -204.554)" d="M267.313 146.656c0-11.898 92.735-65.439 103.04-59.49 10.303 5.95 10.303 113.03 0 118.98-10.305 5.949-103.04-47.592-103.04-59.49z"/><path style="fill:url(#e);fill-opacity:1;stroke:#000;stroke-width:3.77953;stroke-miterlimit:4;stroke-dasharray:none;stroke-opacity:1" transform="matrix(0 -.85967 .85967 0 -72.834 349.636)" d="M267.313 146.656c0-11.898 92.735-65.439 103.04-59.49 10.303 5.95 10.303 113.03 0 118.98-10.305 5.949-103.04-47.592-103.04-59.49z"/><path style="fill:url(#f);fill-opacity:1;stroke:#000;stroke-width:3.77953;stroke-miterlimit:4;stroke-dasharray:none;stroke-opacity:1" transform="matrix(0 .85967 -.85967 0 179.316 -228.096)" d="M267.313 146.656c0-11.898 92.735-65.439 103.04-59.49 10.303 5.95 10.303 113.03 0 118.98-10.305 5.949-103.04-47.592-103.04-59.49z"/></svg>